<svg xmlns="http://www.w3.org/2000/svg" version="1.1" xmlns:xlink="http://www.w3.org/1999/xlink" xmlns:svgjs="http://svgjs.dev/svgjs" width="1500" height="1500" viewBox="0 0 1500 1500"><rect width="1500" height="1500" fill="#ffffff"></rect><g transform="matrix(0.6666666666666666,0,0,0.6666666666666666,249.39393939393938,438.5856950067477)"><svg viewBox="0 0 396 247" data-background-color="#110f10" preserveAspectRatio="xMidYMid meet" height="935" width="1500" xmlns="http://www.w3.org/2000/svg" xmlns:xlink="http://www.w3.org/1999/xlink"><g id="tight-bounds" transform="matrix(1,0,0,1,0.2400000000000091,-0.09999999999999432)"><svg viewBox="0 0 395.52 247.2" height="247.2" width="395.52"><g><svg></svg></g><g><svg viewBox="0 0 395.52 247.2" height="247.2" width="395.52"><g transform="matrix(1,0,0,1,75.54432000000001,89.22860082987552)"><svg viewBox="0 0 244.43135999999996 68.74279834024895" height="68.74279834024895" width="244.43135999999996"><g><svg viewBox="0 0 244.43135999999996 68.74279834024895" height="68.74279834024895" width="244.43135999999996"><g><svg viewBox="0 0 244.43136 68.74279834024897" height="68.74279834024895" width="244.43135999999996"><g><svg viewBox="0 0 244.43136 68.74279834024897" height="68.74279834024897" width="244.43136"><g id="textblocktransform"><svg viewBox="0 0 244.43136 68.74279834024897" height="68.74279834024897" width="244.43136" id="textblock"><g><svg viewBox="0 0 244.43136 68.74279834024897" height="68.74279834024897" width="244.43136"><g transform="matrix(1,0,0,1,0,0)"><svg width="244.43136" viewBox="0.98 -29.3 105.89999999999999 29.79" height="68.74279834024897" data-palette-color="#cef196"><path d="M22.17-29.3L22.17-28.03 26.32-28.03 26.32-6.15 7.76-29.3 0.98-29.3 0.98-28.03 4.88-28.03 4.88-1.27 0.98-1.27 0.98 0 10.99 0Q10.99-1.07 10.21-1.22L10.21-1.22Q9.96-1.27 9.72-1.27L9.72-1.27 6.84-1.27 6.84-23.88 26.03 0.24 28.27-0.24 28.27-28.03 32.18-28.03 32.18-29.3 22.17-29.3ZM44.82-20.02L44.82-20.02Q48.24-20.02 49.36-17.14L49.36-17.14Q49.75-16.21 49.75-15.14L49.75-15.14Q49.75-12.7 47.41-12.16L47.41-12.16Q46.19-11.91 43.94-11.96L43.94-11.96 38.77-12.11Q39.01-17.72 42.43-19.43L42.43-19.43Q43.55-20.02 44.82-20.02ZM53.32-4.69L53.32-4.69 52.1-5.13Q50.39-1.42 46.58-0.93L46.58-0.93Q46.09-0.88 45.65-0.88L45.65-0.88Q40.52-0.88 39.21-6.98L39.21-6.98Q38.82-8.69 38.77-10.74L38.77-10.74 44.63-10.64Q50.58-10.55 52.29-11.77L52.29-11.77Q53.61-12.74 53.61-14.55L53.61-14.55Q53.61-17.87 50.24-19.82L50.24-19.82Q47.85-21.24 44.72-21.24L44.72-21.24Q38.62-21.24 35.98-16.16L35.98-16.16Q34.62-13.53 34.62-10.21L34.62-10.21Q34.62-4.15 38.96-1.22L38.96-1.22Q41.55 0.49 44.87 0.49L44.87 0.49Q50.14 0.49 52.63-3.32L52.63-3.32Q53.02-4 53.32-4.69ZM61.42-10.4L61.42-10.4Q61.42-17.97 65.57-19.63L65.57-19.63Q66.65-20.02 67.82-20.02L67.82-20.02Q73.24-20.02 74.12-13.18L74.12-13.18Q74.26-12.01 74.26-10.6L74.26-10.6Q74.26-2.39 69.77-0.98L69.77-0.98Q68.89-0.73 67.96-0.73L67.96-0.73Q63.03-0.73 61.76-6.59L61.76-6.59Q61.42-8.3 61.42-10.4ZM67.96-21.24L67.96-21.24Q63.28-21.24 60.15-18.02L60.15-18.02Q57.27-15.04 57.27-10.6L57.27-10.6Q57.27-4.44 61.76-1.37L61.76-1.37Q64.5 0.49 67.82 0.49L67.82 0.49Q72.5 0.49 75.58-2.83L75.58-2.83Q78.41-5.86 78.41-10.4L78.41-10.4Q78.41-16.55 73.87-19.53L73.87-19.53Q71.19-21.24 67.96-21.24ZM91.35-1.22L91.35-1.22 89.15-1.22 89.15-11.77Q89.3-16.31 92.38-18.31L92.38-18.31Q93.69-19.14 95.06-19.14L95.06-19.14Q98.04-19.14 99.11-16.36L99.11-16.36Q99.55-15.23 99.55-13.82L99.55-13.82 99.55-4.15Q99.55-1.9 98.28-1.46L98.28-1.46Q97.55-1.22 95.89-1.22L95.89-1.22 95.89 0 106.88 0Q106.88-1.07 106.14-1.17L106.14-1.17Q105.95-1.22 105.66-1.22L105.66-1.22 103.22-1.22 103.22-13.33Q103.22-18.21 99.85-20.31L99.85-20.31Q98.28-21.24 96.48-21.24L96.48-21.24Q92.86-21.24 90.52-18.36L90.52-18.36Q89.64-17.24 89.1-15.87L89.1-15.87 88.91-20.75 81.83-20.75 81.83-19.53 85.49-19.53 85.49-4.15Q85.49-1.9 84.22-1.46L84.22-1.46Q83.49-1.22 81.83-1.22L81.83-1.22 81.83 0 92.57 0Q92.57-1.07 91.84-1.17L91.84-1.17Q91.64-1.22 91.35-1.22Z" opacity="1" transform="matrix(1,0,0,1,0,0)" fill="#000000" class="wordmark-text-0" data-fill-palette-color="primary" id="text-0"></path></svg></g></svg></g></svg></g></svg></g></svg></g></svg></g></svg></g><path d="M190.637 83.229L190.637 26.083 385.671 26.083 385.671 221.117 190.637 221.117 190.637 163.971 196.836 163.971 196.836 214.918 379.472 214.918 379.472 32.282 196.836 32.282 196.836 83.229Z" fill="#000000" stroke="transparent" data-fill-palette-color="tertiary"></path></svg></g><defs></defs></svg><rect width="395.52" height="247.2" fill="none" stroke="none" visibility="hidden"></rect></g></svg></g></svg>